<svg id="visual" viewBox="0 0 900 50" width="900" height="50" xmlns="http://www.w3.org/2000/svg" xmlns:xlink="http://www.w3.org/1999/xlink" version="1.1"><rect x="0" y="0" width="900" height="50" fill="#E6E3DB"></rect><path d="M0 11L10 10.7C20 10.3 40 9.7 60 11.2C80 12.7 100 16.3 120 17.8C140 19.3 160 18.7 180 17.2C200 15.7 220 13.3 240 13C260 12.7 280 14.3 300 14.3C320 14.3 340 12.7 360 13.3C380 14 400 17 420 17.7C440 18.3 460 16.7 480 14.7C500 12.7 520 10.3 540 10.2C560 10 580 12 600 14.5C620 17 640 20 660 19.5C680 19 700 15 720 14.7C740 14.3 760 17.7 780 18.2C800 18.7 820 16.3 840 14.3C860 12.3 880 10.7 890 9.8L900 9L900 51L890 51C880 51 860 51 840 51C820 51 800 51 780 51C760 51 740 51 720 51C700 51 680 51 660 51C640 51 620 51 600 51C580 51 560 51 540 51C520 51 500 51 480 51C460 51 440 51 420 51C400 51 380 51 360 51C340 51 320 51 300 51C280 51 260 51 240 51C220 51 200 51 180 51C160 51 140 51 120 51C100 51 80 51 60 51C40 51 20 51 10 51L0 51Z" fill="#e6e3db"></path><path d="M0 26L10 25C20 24 40 22 60 22.3C80 22.7 100 25.3 120 25.8C140 26.3 160 24.7 180 23.2C200 21.7 220 20.3 240 19.2C260 18 280 17 300 18.7C320 20.3 340 24.7 360 26.2C380 27.7 400 26.3 420 25C440 23.7 460 22.3 480 20.8C500 19.3 520 17.7 540 17.2C560 16.7 580 17.3 600 17.8C620 18.3 640 18.7 660 19C680 19.3 700 19.7 720 20.2C740 20.7 760 21.3 780 20.7C800 20 820 18 840 19C860 20 880 24 890 26L900 28L900 51L890 51C880 51 860 51 840 51C820 51 800 51 780 51C760 51 740 51 720 51C700 51 680 51 660 51C640 51 620 51 600 51C580 51 560 51 540 51C520 51 500 51 480 51C460 51 440 51 420 51C400 51 380 51 360 51C340 51 320 51 300 51C280 51 260 51 240 51C220 51 200 51 180 51C160 51 140 51 120 51C100 51 80 51 60 51C40 51 20 51 10 51L0 51Z" fill="#efe7b8"></path><path d="M0 32L10 31.8C20 31.7 40 31.3 60 31.5C80 31.7 100 32.3 120 32.2C140 32 160 31 180 29.7C200 28.3 220 26.7 240 25.7C260 24.7 280 24.3 300 24.8C320 25.3 340 26.7 360 26.7C380 26.7 400 25.3 420 25.5C440 25.7 460 27.3 480 28.2C500 29 520 29 540 29.2C560 29.3 580 29.7 600 29C620 28.3 640 26.7 660 26.5C680 26.3 700 27.7 720 28.5C740 29.3 760 29.7 780 29.5C800 29.3 820 28.7 840 27.5C860 26.3 880 24.7 890 23.8L900 23L900 51L890 51C880 51 860 51 840 51C820 51 800 51 780 51C760 51 740 51 720 51C700 51 680 51 660 51C640 51 620 51 600 51C580 51 560 51 540 51C520 51 500 51 480 51C460 51 440 51 420 51C400 51 380 51 360 51C340 51 320 51 300 51C280 51 260 51 240 51C220 51 200 51 180 51C160 51 140 51 120 51C100 51 80 51 60 51C40 51 20 51 10 51L0 51Z" fill="#eced95"></path><path d="M0 34L10 33.3C20 32.7 40 31.3 60 31.3C80 31.3 100 32.7 120 34.2C140 35.7 160 37.3 180 37.8C200 38.3 220 37.7 240 37.2C260 36.7 280 36.3 300 36.3C320 36.3 340 36.7 360 35.7C380 34.7 400 32.3 420 31.7C440 31 460 32 480 32.2C500 32.3 520 31.7 540 31.5C560 31.3 580 31.7 600 32.2C620 32.7 640 33.3 660 33.8C680 34.3 700 34.7 720 35.5C740 36.3 760 37.7 780 37.5C800 37.3 820 35.7 840 34.5C860 33.3 880 32.7 890 32.3L900 32L900 51L890 51C880 51 860 51 840 51C820 51 800 51 780 51C760 51 740 51 720 51C700 51 680 51 660 51C640 51 620 51 600 51C580 51 560 51 540 51C520 51 500 51 480 51C460 51 440 51 420 51C400 51 380 51 360 51C340 51 320 51 300 51C280 51 260 51 240 51C220 51 200 51 180 51C160 51 140 51 120 51C100 51 80 51 60 51C40 51 20 51 10 51L0 51Z" fill="#dff572"></path><path d="M0 37L10 37.3C20 37.7 40 38.3 60 38.5C80 38.7 100 38.3 120 38.5C140 38.7 160 39.3 180 39.7C200 40 220 40 240 39.7C260 39.3 280 38.7 300 38.7C320 38.7 340 39.3 360 40.3C380 41.3 400 42.7 420 42.5C440 42.3 460 40.7 480 39.8C500 39 520 39 540 38.7C560 38.3 580 37.7 600 38.3C620 39 640 41 660 42.3C680 43.7 700 44.3 720 43.3C740 42.3 760 39.7 780 39C800 38.3 820 39.7 840 39.7C860 39.7 880 38.3 890 37.7L900 37L900 51L890 51C880 51 860 51 840 51C820 51 800 51 780 51C760 51 740 51 720 51C700 51 680 51 660 51C640 51 620 51 600 51C580 51 560 51 540 51C520 51 500 51 480 51C460 51 440 51 420 51C400 51 380 51 360 51C340 51 320 51 300 51C280 51 260 51 240 51C220 51 200 51 180 51C160 51 140 51 120 51C100 51 80 51 60 51C40 51 20 51 10 51L0 51Z" fill="#c7ff4f"></path></svg>